<svg enable-background="new 0 0 24 24" height="512" viewBox="0 0 24 24" width="512" xmlns="http://www.w3.org/2000/svg"><path d="m18.779 12.385v.318c0 6.203-2.064 10.508-2.729 11.297h-8.068c-.696-.964-3.482-5.041-3.482-8.219 0-1.94 1.653-3.2 2.435-3.781l.046 3.278c.011.285.246.515.536.515h.011c.289-.011.525-.252.525-.548l-.339-13.274c0-.603.482-1.085 1.061-1.096.279.011.557.11.761.318s.321.482.321.778v9.974c0 .285.225.526.504.548.321.044.536-.197.568-.482l.332-3.014c.032-.427.3-.778.696-.91.332-.121.675-.055.943.164.279.219.418.548.396.91l-.086.942v.033l-.139 1.764c-.021.307.193.57.493.592.289.011-.133-.197-.111-.504l.129-1.666c.182-.351.546-.57.943-.57.589 0 1.071.493 1.071 1.096l-.032 1.536c0 .307.236.548.536.548s.536-.241.536-.548c0-.603.482-1.096 1.071-1.096.589.001 1.072.494 1.072 1.097z" fill="#ffcc80"/><path d="m7.4 16.228c-.414 0-.75-.336-.75-.75v-13.254c0-1.216.979-2.213 2.182-2.224.581-.025 1.14.221 1.559.636.425.422.659.985.659 1.588v5.199c.085-.042.174-.078.265-.109.684-.232 1.43-.104 1.998.339.579.451.891 1.161.832 1.898l-.196 2.459c-.034.414-.403.706-.808.688-.413-.033-.721-.395-.688-.808l.196-2.459c.02-.236-.075-.453-.258-.596-.173-.135-.389-.171-.595-.103-.25.086-.426.316-.446.59l-.305 2.711c-.045.396-.396.688-.787.665-.398-.021-.708-.35-.708-.748v-9.726c0-.199-.076-.385-.216-.522-.132-.132-.27-.182-.488-.202-.384.003-.696.328-.696.724v13.254c0 .414-.336.75-.75.75z"/><path d="m7.884 24c-.226 0-.448-.102-.596-.294-.144-.189-3.538-4.666-3.538-8.316 0-3.391 2.986-4.8 3.114-4.858.369-.174.821-.009.994.369.172.375.009.819-.365.993-.092.043-2.243 1.082-2.243 3.496 0 3.141 3.197 7.362 3.229 7.405.252.328.188.799-.141 1.051-.135.103-.295.154-.454.154z"/><path d="m16.1 13.683c-.414 0-.75-.336-.75-.75v-1.965c0-.399-.313-.724-.699-.724-.271 0-.527.17-.638.424-.166.381-.608.555-.987.388-.38-.165-.554-.607-.388-.987.351-.805 1.141-1.324 2.013-1.324 1.213 0 2.199.997 2.199 2.224v1.965c0 .413-.336.749-.75.749z"/><path d="m15.616 24c-.19 0-.38-.071-.526-.216-.295-.29-.299-.765-.008-1.061.029-.03 3.168-3.331 3.168-9.504v-.287c0-.399-.314-.724-.7-.724s-.7.324-.7.724c0 .414-.336.75-.75.75s-.75-.336-.75-.75c0-1.227.987-2.224 2.2-2.224s2.2.997 2.2 2.224v.287c0 6.819-3.452 10.407-3.6 10.557-.146.149-.339.224-.534.224z"/></svg>