<?xml version="1.0" ?><!DOCTYPE svg  PUBLIC '-//W3C//DTD SVG 1.1//EN'  'http://www.w3.org/Graphics/SVG/1.1/DTD/svg11.dtd'><svg enable-background="new 0 0 64 64" height="64px" id="Layer_1" version="1.1" viewBox="0 0 64 64" width="64px" xml:space="preserve" xmlns="http://www.w3.org/2000/svg" xmlns:xlink="http://www.w3.org/1999/xlink"><g><g><polyline fill="#FFDD12" points="23.5,43.3 13.3,43.3 8.4,20.1 16.5,20.1 18.6,34.4 20.8,20.1 30.1,20.1 32.3,34.8 34.5,20.1     42.5,20.1 37.6,43.3 27.6,43.3 25.5,28.3   "/></g><g><polyline fill="#FFDD12" points="23.5,43.3 13.3,43.3 8.4,20.1 16.5,20.1 18.6,34.4 20.8,20.1 30.1,20.1 32.3,34.8 34.5,20.1     42.5,20.1 37.6,43.3 27.6,43.3 25.5,28.3   "/></g><g><path d="M19.2,41.5c0.9,0.8,2.1,1.4,3.5,1.8h0.8l2.1-15l2.1,15h10l4.9-23.1h-8l-2.2,14.6l-2.1-14.6h-5.6h-3.7    l-2.1,14.3l-2.1-14.3h0v14.1C16.5,37.5,17.4,39.9,19.2,41.5z" fill="#FFC715"/></g><g><polyline fill="#FFF315" points="7.2,43.2 5.8,43.2 1,20.1 2.4,20.1   "/></g><g><polyline fill="#FFDD12" points="10.9,43.2 9.6,43.2 4.7,20.1 6.1,20.1   "/></g><g><path d="M49.1,20.1v14.5c0,0.9-0.2,1.7-0.6,2.2c-0.4,0.5-0.9,0.8-1.5,0.8c-0.7,0-1.2-0.3-1.6-0.8c-0.4-0.5-0.5-1.3-0.5-2.3V20.1    h-1.7l-4.5,21.4c0.8,0.7,1.8,1.3,3,1.6c1.4,0.5,3.2,0.7,5.4,0.7c3.7,0,6.5-0.8,8.3-2.3c1.8-1.6,2.7-4,2.7-7.3V20.1"/></g><g><path d="M36.1,20.1v14.1c0,1.8,0.2,3.2,0.5,4.2c0.3,0.9,0.8,1.8,1.5,2.5l4.4-20.8" fill="#FFA515"/></g><g><path d="M59.8,22l0.4,0l0.1,0.2l0.2,0.1l0.2-0.1l0.1-0.1l-0.1-0.1l-0.2-0.1c-0.2,0-0.3-0.1-0.4-0.2l-0.1-0.3l0.1-0.2l0.2-0.2    c0.1,0,0.2-0.1,0.4-0.1c0.2,0,0.3,0,0.4,0.1c0.1,0.1,0.2,0.2,0.2,0.4l-0.4,0l-0.1-0.2l-0.2,0l-0.1,0l0,0.1l0,0.1l0.2,0.1    c0.2,0,0.3,0.1,0.4,0.1l0.2,0.2l0.1,0.2L61,22.2l-0.2,0.2l-0.4,0.1c-0.3,0-0.4-0.1-0.5-0.2C59.8,22.2,59.8,22.1,59.8,22"/></g><g><polyline points="61.3,20.9 61.9,20.9 62.2,21.9 62.4,20.9 63,20.9 63,22.5 62.6,22.5 62.6,21.3 62.3,22.5 62,22.5 61.7,21.3     61.7,22.5 61.3,22.5   "/></g><g><path d="M38.7,41.5c0.8,0.7,1.8,1.3,3,1.6c1.4,0.5,3.2,0.7,5.4,0.7c0.2,0,0.3,0,0.4,0l4.9-23.7h-3.3v14.5    c0,0.9-0.2,1.7-0.6,2.2c-0.4,0.5-0.9,0.8-1.5,0.8c-0.7,0-1.2-0.3-1.6-0.8c-0.4-0.5-0.5-1.3-0.5-2.3V20.1h-0.5h-1.2L38.7,41.5z" fill="#44423E"/></g></g></svg>