<?xml version="1.0" encoding="iso-8859-1"?>
<!-- Generator: Adobe Illustrator 19.0.0, SVG Export Plug-In . SVG Version: 6.00 Build 0)  -->
<svg version="1.1" id="Layer_1" xmlns="http://www.w3.org/2000/svg" xmlns:xlink="http://www.w3.org/1999/xlink" x="0px" y="0px"
	 viewBox="0 0 503.608 503.608" style="enable-background:new 0 0 503.608 503.608;" xml:space="preserve">
<g>
	<g>
		<path d="M499.062,310.443c-14.619-20.36-29.496-20.913-66.501-1.454l-73.276,44.769c-8.321,4.406-25.822,6.88-50.247,7.473
			c-1.146,0.028-2.281,0.052-3.417,0.072c3.799-7.872,1.967-17.513-5.087-28.044c-11.542-17.222-30.429-28.282-51.25-30.786
			c2.297-4.511,4.57-9.396,6.766-14.63c0.357-0.263,0.702-0.549,1.022-0.876c6.813-6.958,14.651-10.868,30.162-15.755
			c1.927-0.607,2.145-0.677,6.232-1.919c43.126,19.376,72.635,12.714,90.105-11.244c2.856-3.917,5.166-8.015,7.18-12.419
			c1.064-2.327,3.018-7.174,2.99-7.113c1.928-4.215,0.074-9.196-4.141-11.124c1.921,0.879-7.898-4.215-13.084-6.393
			c-15.862-6.663-31.724-9.231-47.118-5.218c-17.13,4.466-31.357,16.815-41.704,37.72c-0.304,0.092-0.586,0.179-0.861,0.263
			c-1.779,0.543-3.252,0.999-4.644,1.437c-6.548,2.063-12.031,4.04-16.811,6.174c8.628-30.015,11.134-61.697,5.07-93.881
			c31.9-3.879,58.29-25.607,68.857-54.914l0.512,0.219l1.608-7.013c1.247-4.675,2.093-9.512,2.517-14.47
			c0.072-0.789,0.132-1.578,0.18-2.368c0.023-0.405,0.042-0.811,0.059-1.218c0.056-1.221,0.093-2.442,0.093-3.663
			C344.274,37.642,306.632,0,260.206,0c0,0,0,0-0.001,0c0,0,0,0,0,0s0,0,0,0c-0.9,0-1.687,0.02-2.619,0.066
			c-2.282,0.07-4.542,0.221-6.775,0.469l-5.943,0.434l0.073,0.439c-32.001,5.874-57.66,29.853-65.954,60.938l-0.3-0.03l-0.708,4.232
			c-0.969,4.567-1.561,9.27-1.754,14.078c-0.011,0.239-0.009,0.476-0.018,0.714c-0.029,0.908-0.069,1.813-0.069,2.727
			c0,0.564,0.031,1.121,0.043,1.682c0.015,0.756,0.022,1.514,0.057,2.266c0.033,0.714,0.092,1.42,0.143,2.13
			c0.044,0.616,0.083,1.233,0.14,1.846c0.071,0.759,0.162,1.511,0.253,2.263c0.066,0.541,0.13,1.083,0.206,1.621
			c0.112,0.8,0.24,1.594,0.375,2.386c0.079,0.463,0.161,0.926,0.248,1.387c0.159,0.85,0.33,1.695,0.514,2.536
			c0.08,0.361,0.165,0.72,0.249,1.079c0.216,0.925,0.441,1.846,0.687,2.759c0.051,0.189,0.108,0.376,0.16,0.565
			c1.919,6.916,4.698,13.47,8.218,19.546c0.003,0.005,0.006,0.011,0.009,0.016c12.566,21.679,34.521,37.233,60.314,41.064
			l5.746,1.066c2.483,12.287,3.588,24.525,3.476,36.634c-9.169-14.191-22.234-23.076-38.201-27.093
			c-13.669-3.439-27.857-3.03-41.791-0.31c-3.336,0.651-6.05,1.314-8.487,1.962c-4.454,1.086-7.212,5.545-6.196,10.015
			c0.045,0.198,0.552,2.658,0.786,3.717c0.488,2.203,1.024,4.323,1.68,6.537c1.808,6.105,4.246,11.963,7.555,17.522
			c14.4,24.189,40.518,35.599,79.836,28.139c-2.429,10.689-5.72,21.192-9.754,31.445c-3.176,8.072-6.573,15.316-9.959,21.611
			c-0.704,1.309-1.345,2.463-1.921,3.473h-23.048c-17.78,0-34.697-5.368-48.093-15.472c-12.895-9.721-29.491-11.445-48.481-7
			c-12.327,2.885-25.263,8.269-38.379,15.422c-4.796,2.615-9.393,5.359-13.762,8.14v-17.641H0.009v218.229h58.754v-25.18h109.114
			c17.176,0,34.343-1.298,51.336-3.881l108.799-16.544c3.932-0.046,7.84-0.502,11.722-1.345
			c10.078-1.437,19.643-6.374,27.547-13.827l127.222-99.075C504.597,335.388,506.547,320.878,499.062,310.443z M333.632,232.025
			c11.211-2.923,23.605-0.916,36.382,4.451c1.843,0.774,3.597,1.577,5.349,2.437c-1.545,3.343-3.279,6.397-5.356,9.245
			c-10.693,14.665-27.381,20.328-54.132,11.848c5.693-1.891,11.461-3.338,17.471-4.337c4.573-0.76,7.664-5.083,6.904-9.656
			c-0.76-4.573-5.083-7.664-9.656-6.904c-5.159,0.857-10.156,2.005-15.068,3.427C321.004,237.159,327.057,233.74,333.632,232.025z
			 M196.306,105.132c-0.244-0.738-0.472-1.482-0.691-2.23c-0.052-0.178-0.102-0.356-0.152-0.534
			c-0.205-0.726-0.403-1.454-0.584-2.189c-0.028-0.114-0.052-0.229-0.079-0.343c-0.339-1.407-0.629-2.832-0.878-4.27
			c-0.043-0.25-0.093-0.497-0.134-0.748c-0.093-0.573-0.168-1.152-0.246-1.73c-0.06-0.447-0.12-0.895-0.171-1.345
			c-0.061-0.535-0.115-1.072-0.163-1.61c-0.046-0.517-0.084-1.037-0.118-1.558c-0.033-0.499-0.069-0.997-0.091-1.498
			c-0.03-0.677-0.042-1.358-0.052-2.041c-0.005-0.322-0.019-0.641-0.019-0.963c0-1.136,0.035-2.284,0.106-3.453l10.803,1.078
			c11.659,1.167,22.294,7.165,29.321,16.535c6.39,8.515,9.292,19.148,8.117,29.736l-2.216,19.935
			c-20.251-6.683-36.019-22.619-42.678-42.548C196.356,105.28,196.33,105.206,196.306,105.132z M265.928,17.046
			c0.503,0.042,1.008,0.079,1.508,0.133c0.618,0.066,1.229,0.151,1.842,0.234c0.486,0.065,0.974,0.124,1.456,0.2
			c0.624,0.098,1.24,0.217,1.858,0.332c0.462,0.086,0.928,0.163,1.387,0.259c0.64,0.133,1.273,0.289,1.906,0.44
			c0.427,0.102,0.858,0.194,1.282,0.304c0.681,0.177,1.351,0.377,2.023,0.575c0.368,0.108,0.741,0.205,1.106,0.319
			c0.824,0.258,1.637,0.54,2.447,0.828c0.205,0.073,0.414,0.136,0.617,0.21c1.015,0.372,2.018,0.768,3.009,1.186
			c0.194,0.082,0.382,0.175,0.575,0.259c0.789,0.342,1.576,0.691,2.349,1.062c0.332,0.159,0.654,0.334,0.983,0.499
			c0.625,0.313,1.252,0.624,1.865,0.955c0.367,0.198,0.724,0.412,1.087,0.617c0.564,0.318,1.129,0.633,1.682,0.967
			c0.377,0.227,0.744,0.469,1.116,0.703c0.526,0.331,1.053,0.66,1.569,1.006c0.378,0.253,0.746,0.519,1.118,0.779
			c0.495,0.346,0.992,0.691,1.478,1.051c0.373,0.276,0.737,0.564,1.104,0.847c0.47,0.363,0.941,0.726,1.401,1.101
			c0.363,0.296,0.718,0.603,1.075,0.907c0.448,0.381,0.896,0.763,1.334,1.156c0.352,0.316,0.695,0.64,1.04,0.963
			c0.426,0.399,0.852,0.799,1.268,1.209c0.339,0.334,0.67,0.675,1.001,1.015c0.406,0.417,0.809,0.836,1.204,1.263
			c0.324,0.35,0.64,0.706,0.956,1.063c0.385,0.434,0.766,0.871,1.14,1.316c0.308,0.366,0.61,0.737,0.91,1.11
			c0.363,0.451,0.722,0.906,1.074,1.367c0.291,0.381,0.578,0.767,0.861,1.154c0.342,0.468,0.678,0.94,1.008,1.417
			c0.273,0.395,0.542,0.793,0.807,1.194c0.32,0.485,0.633,0.975,0.941,1.469c0.254,0.408,0.506,0.817,0.752,1.231
			c0.298,0.502,0.588,1.009,0.873,1.518c0.234,0.419,0.467,0.839,0.693,1.263c0.276,0.519,0.542,1.044,0.805,1.571
			c0.213,0.428,0.427,0.856,0.631,1.289c0.254,0.537,0.495,1.081,0.735,1.625c0.192,0.435,0.384,0.87,0.567,1.31
			c0.23,0.555,0.447,1.117,0.662,1.679c0.17,0.443,0.342,0.884,0.503,1.331c0.206,0.573,0.396,1.154,0.587,1.734
			c0.146,0.446,0.297,0.89,0.435,1.34c0.182,0.596,0.346,1.2,0.512,1.803c0.122,0.445,0.251,0.887,0.364,1.336
			c0.157,0.623,0.295,1.255,0.435,1.885c0.097,0.438,0.202,0.872,0.291,1.313c0.133,0.659,0.243,1.326,0.356,1.992
			c0.071,0.421,0.153,0.839,0.217,1.263c0.107,0.714,0.19,1.436,0.274,2.157c0.045,0.383,0.102,0.763,0.14,1.149
			c0.083,0.833,0.139,1.674,0.191,2.516c0.017,0.28,0.047,0.556,0.061,0.836c0.057,1.131,0.086,2.268,0.086,3.413
			c0,0.977-0.032,1.946-0.074,2.913c-0.028,0.61-0.065,1.221-0.112,1.833c-0.008,0.115-0.018,0.23-0.026,0.346l-22.887-9.81
			c-2.031-0.868-3.503-2.683-3.942-4.862l-4.404-22.022c-2.194-10.982-11.834-18.893-23.036-18.893
			c-3.284,0-6.087-2.373-6.628-5.613l-1.834-11.019C265.007,16.971,265.468,17.008,265.928,17.046z M247.696,17.966l2.123,12.755
			c1.894,11.336,11.698,19.639,23.186,19.639c3.196,0,5.948,2.258,6.575,5.396l4.407,22.035c1.53,7.598,6.682,13.951,13.794,16.992
			l26.046,11.164c-9.083,26.413-34.13,45.404-63.623,45.404c-1.554,0-3.091-0.072-4.619-0.176l2.374-21.354
			c1.646-14.833-2.421-29.732-11.373-41.663c-9.845-13.126-24.744-21.529-41.079-23.164l-9.551-0.953
			C203.273,40.544,223.133,22.588,247.696,17.966z M186.747,208.676c-2.537-4.261-4.448-8.853-5.884-13.702
			c-0.105-0.354-0.206-0.706-0.304-1.057c11.604-2.225,23.328-2.533,34.12,0.183c11.935,3.003,21.54,9.457,28.41,20.249
			c-0.916-0.545-1.81-1.068-2.702-1.581c-2.541-1.461-4.966-2.774-7.362-3.981c-4.141-2.084-9.187-0.417-11.271,3.724
			s-0.417,9.187,3.724,11.271c2.106,1.06,4.26,2.227,6.544,3.54c1.735,0.997,3.499,2.051,5.481,3.27
			C211.984,232.905,196.138,224.451,186.747,208.676z M41.976,486.821h-25.18V302.166h25.18v12.653l-0.001,0.001v163.609h0.001
			V486.821z M484.069,330.604l-127.427,99.234l-0.647,0.559c-5.556,5.318-12.106,8.727-18.772,9.662
			c-3.851,0.817-6.861,1.161-9.871,1.161l-1.262,0.095l-109.4,16.636c-16.159,2.456-32.482,3.69-48.813,3.69H58.763V323.209
			c1.043-0.738,2.266-1.586,3.653-2.525c5.577-3.773,11.696-7.549,18.146-11.066c11.897-6.488,23.503-11.318,34.168-13.814
			c14.586-3.414,26.242-2.203,34.548,4.058c16.384,12.358,36.861,18.856,58.2,18.856h25.705c1.287,0.306,2.613,0.299,3.875,0h3.162
			c18.828,0,36.355,8.944,46.368,23.885c4.587,6.848,4.929,10.247,3.445,12.137c-1.705,2.17-6.324,4.13-12.939,5.25
			c-5.807,0.983-12.093,1.213-17.517,1.006c-0.025-0.001-0.05,0.036-0.077,0.09c-0.537-0.108-1.092-0.166-1.66-0.166h-81.567
			c-25.082,0-41.967,11.052-41.967,33.574c0,4.636,3.758,8.393,8.393,8.393s8.393-3.758,8.393-8.393
			c0-11.388,8.249-16.787,25.18-16.787h81.567c3.664,0,5.027,0.021,16.657,0.23c15.219,0.274,24.639,0.327,34.951,0.077
			c27.011-0.656,46.308-3.384,58.157-9.682l73.243-44.752c29.987-15.749,35.831-15.531,44.579-3.349
			C487.725,323.439,487.137,327.989,484.069,330.604z"/>
	</g>
</g>
<g>
</g>
<g>
</g>
<g>
</g>
<g>
</g>
<g>
</g>
<g>
</g>
<g>
</g>
<g>
</g>
<g>
</g>
<g>
</g>
<g>
</g>
<g>
</g>
<g>
</g>
<g>
</g>
<g>
</g>
</svg>
