<svg id="Capa_1" enable-background="new 0 0 512 512" height="512" viewBox="0 0 512 512" width="512" xmlns="http://www.w3.org/2000/svg"><g><path d="m412.301 30-30-30h-252.602l-30 30h-68.699v187.599c0 135 90.901 256 220.8 293.2l4.2 1.201 4.2-1.201c129.899-37.2 220.8-158.2 220.8-293.2v-187.599z" fill="#f3f5f9"/><path d="m481 30v187.599c0 135-90.901 256-220.8 293.2l-4.2 1.201v-512h126.301l30 30z" fill="#e1e6f0"/><path d="m451 60v157.599c0 120.3-80.099 228.401-195 263.2-114.901-34.799-195-142.9-195-263.2v-157.599h51.301l30-30h227.399l30 30z" fill="#5f5166"/><path d="m451 60v157.599c0 120.3-80.099 228.401-195 263.2v-450.799h113.699l30 30z" fill="#45354d"/><g><path d="m331 135v61h-30v-61c0-24.901-20.099-45-45-45s-45 20.099-45 45v61h-30v-61c0-41.4 33.6-75 75-75s75 33.6 75 75z" fill="#f3f5f9"/></g><path d="m331 135v61h-30v-61c0-24.901-20.099-45-45-45v-30c41.4 0 75 33.6 75 75z" fill="#e1e6f0"/><g><path d="m151 181v105c0 57.9 47.1 105 105 105s105-47.1 105-105v-105z" fill="#ffdf40"/></g><path d="m361 181v105c0 57.9-47.1 105-105 105v-210z" fill="#ffbe40"/><g><path d="m241 241h30v90h-30z" fill="#5f5166"/></g><path d="m256 241h15v90h-15z" fill="#45354d"/></g></svg>